<svg xmlns="http://www.w3.org/2000/svg" version="1.1" xmlns:xlink="http://www.w3.org/1999/xlink" xmlns:svgjs="http://svgjs.com/svgjs" width="512" height="512" x="0" y="0" viewBox="0 0 512 512" style="enable-background:new 0 0 512 512" xml:space="preserve" class=""><g><path fill="#7b6c79" d="M293.125 34.885c-4.081-2.026-7.108-5.775-7.964-10.25-1.474-7.709-5.261-13.689-10.236-17.829h-6.83l-10.645 23.61s-23.885 17.341-24.219 17.856-6.515 21.977-6.515 21.977v42.323h70.868l4.718 4.197c11.06-8.999 18.16-22.701 18.16-37.985.001-19.18-11.175-35.874-27.337-43.899z" data-original="#7b6c79"></path><path fill="#ffcebe" d="m307.775 188.999-13.141-3.188a16.491 16.491 0 0 1-12.483-14.041l-1.149-9.479-2.777-3.273h-24.111l-10.237 33.395-57.173 13.392-22.915 14.68-17.554 43.525-23.911 82.93v20.049l17.513 21.507h6.398c3.308-1.784 6.439-4.188 9.257-7.277l22.462.147 34.618-50.479 42.974-20.859 40.535-46.103 17.856-64.3z" data-original="#ffcebe" class=""></path><path fill="#ffb1a0" d="M128.049 356.723c.034-.614.079-1.23.134-1.849 2.098-23.421 14.828-70.893 27.148-107.667a56.816 56.816 0 0 1 40.473-37.181l46.063-11.175c5.196-1.261 8.36-4.299 10.677-9.286 1.115-2.4 1.843-4.962 2.312-7.567l3.581-19.894 4.201-3.086H234.1l-4.201 3.086-1.172 9.666a16.49 16.49 0 0 1-12.482 14.041l-46.063 11.175a56.791 56.791 0 0 0-40.463 37.152c-12.323 36.778-31.673 97.309-33.771 120.736-.055.619-.1 1.235-.135 1.849-1.555 27.801 28.392 43.655 50.424 31.772-10.996-5.677-19.012-17.047-18.188-31.772z" data-original="#ffb1a0" class=""></path><path fill="#ffb1a0" d="M194.667 350.445a7.726 7.726 0 0 1-.501-10.915c10.623-11.645 18.216-17.663 18.216-30.964v-42.157c0-5.439-4.425-9.863-9.863-9.863s-9.863 4.425-9.863 9.863v21.273a20.236 20.236 0 0 1-6.823 15.146l-36.137 31.967a7.726 7.726 0 1 1-10.238-11.573l36.136-31.967a4.771 4.771 0 0 0 1.609-3.572V266.41c0-13.959 11.357-25.316 25.316-25.316s25.316 11.357 25.316 25.316v42.157c0 19.555-10.873 28.903-22.253 41.378a7.728 7.728 0 0 1-10.915.5z" data-original="#ffb1a0" class=""></path><path fill="#665e68" d="M229.375 78.785c0-19.252 11.259-35.999 27.516-43.988 4.075-2.003 6.94-5.821 7.806-10.278 1.488-7.651 5.268-13.587 10.228-17.712C269.539 2.324 262.759 0 256 0c-13.057 0-26.041 8.584-29.14 24.519-.867 4.458-3.731 8.276-7.806 10.278-16.258 7.989-27.517 24.737-27.517 43.988 0 14.817 6.677 28.141 17.16 37.141l2.867-3.353h31.442c-8.426-8.804-13.631-20.713-13.631-33.788z" data-original="#665e68"></path><path fill="#ffaa5b" d="M400.392 328.228c-3.434-27.235-9.834-66.077-19.253-94.158-6.231-18.576-21.727-32.545-40.768-37.164l-1.221-.296-7.499 8.422-15.453 55.76-41.422 44.683-33.593 33.481-45.457 69.022-9.02 47.359 88.07-5.588 102.348-7.809 12.195-13.417-5.076-45.171c13.023-15.139 18.647-35.309 16.149-55.124z" data-original="#ffaa5b" class=""></path><path fill="#ff9838" d="M199.969 428.779a80.078 80.078 0 0 1 16.311-46.27l26.613-34.991c5.429-7.137 12.035-13.295 19.499-18.265 68.403-45.548 77.37-102.934 76.757-132.643l-31.374-7.612c-.99 28.698-13.357 91.593-97.093 131.718l-55.189 60.501-6.913 58.89v9.641l18.73 6.819 31.949-2.027z" data-original="#ff9838" class=""></path><path fill="#ff9838" d="M312.238 366.988a7.728 7.728 0 0 1-.193-15.451 4.24 4.24 0 0 0 4.153-4.266v-86.48a7.726 7.726 0 1 1 15.452 0v86.48c0 10.78-8.439 19.439-19.211 19.714a6.838 6.838 0 0 1-.201.003z" data-original="#ff9838" class=""></path><path fill="#ffcebe" d="M332.545 343.155c-.548.033-1.003.391-1.227.892-1.828 4.089-5.868 6.977-10.629 7.099-15.372.393-36.33.539-49.753.593a61.941 61.941 0 0 0-25.31 5.519l-21.683 9.821c-9.109 4.126-13.575 14.512-10.302 23.962 3.55 10.249 14.828 15.58 25.001 11.817l25.045-9.264a13.329 13.329 0 0 1 6.112-.746c12.159 1.363 56.966 6.161 84.931 6.161 12.222 0 22.028-6.958 29.51-15.656a66.685 66.685 0 0 0 2.4-2.959c-7.579-35.064-37.809-38.216-54.095-37.239zM252.9 447.867l-6.958-4.409c-45.597-12.768-32.685-8.808-67.521-20.627-7.192-2.44-15.06 1.001-18.15 7.939-3.148 7.067-.279 15.365 6.563 18.978l5.56 8.45 27.61 14.675 63.97 34.001 20.73 5.125 1.934-7.7z" data-original="#ffcebe" class=""></path><path fill="#ffcb9e" d="M398.238 426.93c-14.886 2.691-33.059 5.81-50.566 8.391l-1.667 7.168 6.565 21.891-4.121 19.831-17.493 22.149V512h70.741c23.345 0 42.957-17.863 44.774-41.137a64 64 0 0 0 .141-2.354c1.093-26.056-22.711-46.216-48.374-41.579z" data-original="#ffcb9e"></path><path fill="#ffba7e" d="M356.418 469.217a82 82 0 0 0 .179-2.981c.486-11.569-2.915-22.213-8.924-30.915-19.32 2.847-37.829 5.037-50.206 5.262-22.166.403-37.738-1.725-46.856-3.564-3.675-.742-6.513 3.175-4.668 6.439L284.705 512h46.251c14.202-9.292 24.054-24.749 25.462-42.783zM145.82 438.651h-5.467l-12.362 23.926v21.119l7.726 15.109 12.862 8.585 12.836 4.61h123.29z" data-original="#ffba7e"></path><path fill="#ffaa5b" d="M131.505 470.148c0-12.251 5.359-23.666 14.315-31.497l-10.122-5.346a51.782 51.782 0 0 0-46.665-.858 41.852 41.852 0 0 0-23.681 37.702c0 23.114 18.738 41.852 41.852 41.852h66.153c-23.114-.001-41.852-18.739-41.852-41.853z" data-original="#ffaa5b" class=""></path><path fill="#ffcebe" d="m264.711 65.784-9.164 4.552s-14.729 14.68-15.513 15.453-3.617 30.982-3.617 30.982l7.461 28.511 16.62 19.573 9.601 5.338c19.021-9.584 32.785-36.767 32.785-62.781 0-28.414-16.417-39.4-38.173-41.628z" data-original="#ffcebe" class=""></path><path fill="#ffb1a0" d="M240.832 107.412c0-25.207 12.919-36.702 31.026-40.531-5.085-1.075-10.579-1.547-16.311-1.547-26.143 0-47.337 9.791-47.337 42.077s21.193 66.392 47.337 66.392c5.732 0 11.226-1.641 16.311-4.542-18.107-10.327-31.026-36.642-31.026-61.849z" data-original="#ffb1a0" class=""></path></g></svg>